<?xml version="1.0" encoding="UTF-8"?>
<svg id="Camada_2" data-name="Camada 2" xmlns="http://www.w3.org/2000/svg" viewBox="0 0 1934.07 491.44">
  <g id="Camada_1-2" data-name="Camada 1">
    <path d="M2.53,491.44l-2.53-5.91,5.93-2.51c13.17-5.57,40.59-17.15,46.6-20.58,4.17-2.38,13.6-4.85,22.72-7.23,6.57-1.72,15.56-4.07,17.12-5.24,3.79-2.84,17.21-11.04,26.9-12.25,8.32-1.04,21.8-5.24,26.7-7.19,4.91-1.96,21.41-11.2,30.15-16.66,9.87-6.17,22.28-7.86,29.65-6.8,6.64.95,13.82-2.37,23.27-8.03,10.89-6.54,17.58-9.86,31.82-12.05,8.54-1.31,19.92-2.63,29.06-3.68,5.64-.65,10.45-1.21,13.27-1.61,2.52-.36,7.46-3.72,11.81-6.68,7.62-5.19,14.19-9.68,19.27-7.98,7.96,2.65,18.48,3.63,20.82.8,1.01-1.21,2.18-3.49,3.42-5.9,3.5-6.8,8.31-16.12,16.75-14,2.27.57,4.63,1.57,7.12,2.64,9.01,3.84,13.59,4.98,16.72-1.17,6.06-11.94,16.38-16.86,24.67-20.83,1.1-.53,2.17-1.04,3.19-1.55,2.84-1.42,4.53-3.41,6.31-5.51,2.86-3.37,6.08-7.2,13.44-6.41,3.03.32,6.12-.39,9.4-1.15,6.12-1.41,13.05-3.01,21.39,1.52,7.25,3.94,10.75,2.76,15.19,1.26,1.86-.63,3.79-1.28,6.07-1.62,2.92-.43,5.83-.67,8.63-.9,4.14-.34,8.05-.66,10.96-1.58,3.58-1.14,7.1-.28,11.19.71,3.39.82,7.2,1.62,11.97,1.73,9.8-.03,33.11-10.18,35.8-12.84l1.14-1.13c17.88-17.54,22.58-25.46,23.37-29.01,1.19-5.36,7.05-12.36,13.25-19.77,5.74-6.85,12.23-14.62,13.17-19.28,2.34-11.71,11.74-22.19,19.05-24.62,1.23-.41,2.79-1.03,4.56-1.73,8.1-3.2,19.2-7.58,26.3-4.52,6.15,2.65,11.89,5.02,14.56,5.02.27-.11,1.84-1.07,2.98-1.77,4.84-2.96,12.16-7.44,19.52-4,2.92,1.37,7.06,1.39,11.05,1.41,6.3.04,13.44.08,16.81,5.97,2.03,3.56,4.53,4.5,6.03,4.72,4.25-6.49,19.49-28.55,31.88-30.61,7.17-1.2,12.3-1.36,16.16-.5,6.25,1.39,8.17,5.35,8.68,8.43.6,3.41,17.55,11.7,29.25,14.31,3.44.79,10.63-7.1,15.36-12.3,6.14-6.75,10.52-11.62,15.1-10.93,1.6.27,6.77-1.56,10.89-3.03,9.17-3.25,20.58-7.3,28.83-4.28,10.09,3.66,29.92-6.04,34.95-10.06,2.09-1.67,6.57-3.89,12.77-6.97,10.38-5.15,24.59-12.2,28.99-17.86,4.86-6.26,13.37-11.32,20.86-15.79,4.25-2.53,8.27-4.92,10.06-6.71,4.6-4.6,15.7-5.7,27.46-6.87,4.21-.42,8.56-.85,12.38-1.44,6.25-.96,17.06-1.7,27.51-2.41,10.28-.7,24.36-1.66,26.56-2.59.54-.27,1.43-.7,2.55-1.23,6.27-3,22.92-10.95,27.04-15.91,2.46-2.95,7.38-6.21,13.09-9.99,5.96-3.95,14.97-9.91,15.9-13.16,2.6-9.1,14.33-13.65,30.62-19.08,8.06-2.69,10.67-6.96,13.69-11.92,2.39-3.92,4.86-7.97,9.99-11.05,2.91-1.75,6.1-4.26,9.47-6.91,8.74-6.89,18.65-14.7,30.25-14.7,15.62,0,88.29,33.15,100.36,43.02,12.76,10.43,46.31,24.73,51.35,21.9.88-.51,1.85-1.09,2.87-1.71,8.04-4.87,20.2-12.25,30.31-4.38,5.1,3.97,18.44,4.9,29.16,5.64,7.46.52,13.9.96,17.57,2.34,4.35,1.63,9.59,4.98,14.21,7.93,3.42,2.19,8.58,5.49,10.07,5.61,2.24,0,15.44-4.29,26.36-8.26l.74-.17,19.5-2.17.46.08c.48.09,11.83,2.16,20.29,4.28.31.08.57.14.79.19,2.06-3.18,6.64-6.41,20.97-9.72,28.33-6.53,33.44-5.35,46.91,3.63,12.58,8.39,15.57,10.38,25.84,14.49,4.31,1.72,8.72,2.73,13.39,3.79,6.33,1.44,13.51,3.08,21.66,6.84,13.58,6.27,40.62,14.57,50.77,15.58,5.73.56,13.45-2.21,20.26-4.67,4.73-1.71,9.2-3.32,12.86-3.78,2.14-.27,4.78-1.05,7.56-1.87,7.67-2.27,17.21-5.11,25.28.27,2.74,1.82,5.74,4.43,9.22,7.44,8.78,7.61,20.81,18.03,36.26,21.71,22.05,5.26,59.33,16.86,59.71,16.98l-1.92,6.14c-.37-.12-37.45-11.65-59.28-16.86-16.98-4.04-29.7-15.06-38.98-23.1-3.31-2.87-6.17-5.35-8.57-6.95-5.56-3.7-12.84-1.55-19.88.54-3.05.9-5.92,1.75-8.59,2.09-2.94.37-7.09,1.86-11.47,3.45-7.45,2.69-15.85,5.74-23.08,5.02-10.86-1.08-38.51-9.53-52.83-16.13-7.54-3.48-14.07-4.97-20.39-6.41-4.92-1.12-9.57-2.19-14.35-4.09-10.89-4.36-14.3-6.64-27.02-15.11-11.62-7.74-14.66-9-41.9-2.71-10.24,2.36-16.03,4.82-17.22,7.29-1.75,3.66-4.82,2.89-7.54,2.21-7.32-1.83-17.19-3.69-19.42-4.1l-18.18,2.02c-5.98,2.17-23.86,8.52-28.22,8.52-3.01,0-6.89-2.39-13.5-6.62-4.35-2.78-9.29-5.94-13-7.33-2.79-1.05-9.09-1.48-15.76-1.95-12.19-.85-26.01-1.81-32.66-6.98-6.61-5.14-16.1.61-23.02,4.81-1.08.65-2.08,1.26-3.01,1.79-10.09,5.77-48.73-14.43-58.61-22.5-10.67-8.72-82.24-41.56-96.29-41.56-9.36,0-18.34,7.07-26.27,13.32-3.53,2.78-6.87,5.42-10.14,7.37-3.78,2.26-5.64,5.33-7.81,8.88-3.22,5.27-6.85,11.24-17.15,14.67-13.46,4.49-24.74,8.7-26.47,14.75-1.47,5.14-8.29,9.97-18.53,16.75-4.84,3.2-9.84,6.52-11.7,8.74-4.43,5.31-17.25,11.88-29.21,17.59-1.07.51-1.92.92-2.48,1.2-2.65,1.32-10.86,2-28.96,3.24-10.32.7-20.98,1.43-26.97,2.35-3.99.61-8.43,1.05-12.72,1.48-9.17.91-20.58,2.04-23.55,5.02-2.36,2.36-6.51,4.83-11.32,7.69-6.66,3.97-14.96,8.91-19.08,14.21-5.31,6.82-19.67,13.95-31.21,19.68-5.17,2.57-10.06,4.99-11.61,6.23-4.55,3.64-27.29,16.13-41.16,11.09-6.09-2.22-16.29,1.4-24.48,4.3-6.27,2.22-10.78,3.83-14.03,3.32-1.51.28-6.23,5.47-9.35,8.9-7.08,7.79-14.42,15.81-21.51,14.26-4.21-.94-32.51-9.46-34.19-19.53-.21-1.28-.81-2.56-3.74-3.21-2.99-.67-7.47-.48-13.71.56-8.21,1.37-21.82,18.64-28.47,29.2l-.77,1.22-1.42.24c-.36.05-8.62,1.32-13.89-7.92-1.43-2.49-5.21-2.69-11.27-2.73-4.69-.03-9.54-.05-13.74-2.02-4.23-1.97-9.55,1.28-13.44,3.66-2.57,1.57-4.43,2.71-6.34,2.71-3.59,0-8.37-1.79-17.1-5.55-4.67-2.01-15.14,2.12-21.4,4.59-1.89.75-3.57,1.41-4.89,1.85-4.85,1.61-12.81,9.92-14.78,19.78-1.26,6.28-7.71,13.99-14.54,22.15-5.18,6.19-11.05,13.21-11.91,17.03-1.92,8.65-15.27,22.53-25.14,32.21l-1.1,1.08c-3.92,3.92-29.2,14.68-40.32,14.72h-.14c-5.44,0-9.82-1.06-13.35-1.91-3.28-.79-5.87-1.42-7.74-.83-3.6,1.14-7.86,1.49-12.38,1.86-2.66.22-5.43.44-8.21.85-1.71.25-3.29.78-4.95,1.35-4.97,1.67-10.59,3.57-20.31-1.7-6.2-3.37-11.15-2.22-16.88-.9-3.65.84-7.43,1.71-11.54,1.27-3.96-.42-5.25,1.11-7.85,4.17-1.92,2.27-4.31,5.09-8.34,7.1-1.05.53-2.16,1.05-3.29,1.6-7.8,3.73-16.64,7.95-21.71,17.93-6.19,12.19-17.5,7.37-24.98,4.17-2.25-.96-4.38-1.87-6.16-2.32-3.54-.86-6.82,5.54-9.47,10.7-1.4,2.73-2.73,5.31-4.19,7.07-6.61,7.96-25.66,1.91-27.8,1.19-2.03-.7-9.57,4.44-13.61,7.2-5.41,3.68-10.52,7.16-14.52,7.73-2.85.41-7.73.97-13.44,1.63-9.09,1.05-20.39,2.35-28.82,3.65-13.17,2.03-19.1,4.97-29.49,11.21-10.65,6.39-18.95,10.11-27.48,8.89-6.28-.91-17.29.87-25.33,5.89-8.27,5.16-25.52,14.91-31.17,17.17-5.31,2.12-19.31,6.48-28.29,7.6-7.83.98-20.06,8.18-23.84,11.01-2.45,1.84-8.63,3.51-19.35,6.31-8.31,2.17-17.73,4.64-21.16,6.59-6.34,3.63-34,15.31-47.29,20.92l-5.9,2.5Z"/>
  </g>
</svg>